<svg width="28" height="28" viewBox="0 0 28 28" fill="none" xmlns="http://www.w3.org/2000/svg">
<rect width="28" height="28" rx="14" fill="#719A94"/>
<path d="M7.6 20.5C7.16 20.5 6.78333 20.3409 6.47 20.0227C6.15667 19.7044 6 19.3219 6 18.875V9.125C6 8.67813 6.15667 8.29557 6.47 7.97734C6.78333 7.65911 7.16 7.5 7.6 7.5H20.4C20.84 7.5 21.2167 7.65911 21.53 7.97734C21.8433 8.29557 22 8.67813 22 9.125V18.875C22 19.3219 21.8433 19.7044 21.53 20.0227C21.2167 20.3409 20.84 20.5 20.4 20.5H7.6ZM14 14.8125L7.6 10.75V18.875H20.4V10.75L14 14.8125ZM14 13.1875L20.4 9.125H7.6L14 13.1875ZM7.6 10.75V9.125V18.875V10.75Z" fill="white"/>
</svg>
